<?xml version="1.0" encoding="utf-8"?>
<!-- Generator: Adobe Illustrator 16.0.0, SVG Export Plug-In . SVG Version: 6.00 Build 0)  -->
<!DOCTYPE svg PUBLIC "-//W3C//DTD SVG 1.1//EN" "http://www.w3.org/Graphics/SVG/1.1/DTD/svg11.dtd">
<svg version="1.1" id="Layer_1" xmlns="http://www.w3.org/2000/svg" xmlns:xlink="http://www.w3.org/1999/xlink" x="0px" y="0px"
	 width="50px" height="50px" viewBox="0 0 50 50" enable-background="new 0 0 50 50" xml:space="preserve">
<path fill="#0078AE" d="M37.167,12.665c0,1.7-1.032,3.079-2.308,3.079H2.578c-1.273,0-2.306-1.379-2.306-3.079l0,0
	c0-1.7,1.032-3.079,2.306-3.079h32.282C36.135,9.583,37.167,10.961,37.167,12.665L37.167,12.665z"/>
<path fill="#E51737" d="M37.167,26.836c0,1.7-1.032,3.078-2.308,3.078H2.578c-1.273,0-2.306-1.378-2.306-3.078l0,0
	c0-1.704,1.032-3.082,2.306-3.082h32.282C36.135,23.754,37.167,25.132,37.167,26.836L37.167,26.836z"/>
<path fill="#0078AE" d="M37.167,41.004c0,1.703-1.032,3.082-2.308,3.082H2.578c-1.273,0-2.306-1.379-2.306-3.082l0,0
	c0-1.703,1.032-3.082,2.306-3.082h32.282C36.135,37.922,37.167,39.301,37.167,41.004L37.167,41.004z"/>
<circle fill="#E51737" cx="45.75" cy="12.5" r="3.167"/>
<circle fill="#0078AE" cx="45.75" cy="26.75" r="3.167"/>
<circle fill="#E51737" cx="45.75" cy="41" r="3.167"/>
</svg>
