<?xml version="1.0" encoding="utf-8"?>
<!-- Generator: Adobe Illustrator 16.0.0, SVG Export Plug-In . SVG Version: 6.00 Build 0)  -->
<!DOCTYPE svg PUBLIC "-//W3C//DTD SVG 1.1//EN" "http://www.w3.org/Graphics/SVG/1.1/DTD/svg11.dtd">
<svg version="1.1" id="Layer_1" xmlns="http://www.w3.org/2000/svg" xmlns:xlink="http://www.w3.org/1999/xlink" x="0px" y="0px"
	 width="250px" height="50px" viewBox="0 0 250 50" enable-background="new 0 0 250 50" xml:space="preserve">
<g>
	<path fill="#0078AE" stroke="#FFFFFF" stroke-width="0.9563" stroke-miterlimit="10" d="M3.498,32.909
		c-0.595,0.596-0.595,1.563,0,2.158L16.891,48.46c0.288,0.288,0.671,0.446,1.079,0.446c0.407,0,0.791-0.158,1.079-0.446
		l15.686-15.686l-15.551-15.55L3.498,32.909z"/>
	<path fill="#E51737" stroke="#FFFFFF" stroke-width="0.9563" stroke-miterlimit="10" d="M50.42,14.932L37.026,1.54
		c-0.288-0.288-0.671-0.447-1.079-0.447c-0.407,0-0.79,0.159-1.079,0.447L19.183,17.225l15.551,15.55L50.42,17.089
		C51.015,16.494,51.015,15.527,50.42,14.932z"/>
	<path fill="#FFFFFF" d="M37.399,18.155c0.993-0.994,0.993-2.604,0-3.596s-2.603-0.993-3.596,0c-0.994,0.994-0.994,2.604,0,3.596
		C34.796,19.147,36.406,19.147,37.399,18.155"/>
	<path fill="#FFFFFF" d="M38.175,19.49c1.554-1.554,1.554-4.074,0-5.628c-1.554-1.554-4.074-1.554-5.626,0
		c-1.554,1.554-1.554,4.074,0,5.628C34.103,21.044,36.621,21.044,38.175,19.49"/>
	<path fill="#FFFFFF" d="M14.931,36.586c1.601-1.602,1.601-4.198,0-5.799c-1.601-1.601-4.197-1.601-5.799,0
		c-1.601,1.601-1.601,4.199,0,5.799C10.734,38.188,13.329,38.188,14.931,36.586"/>
	<path fill="#FFFFFF" d="M26.596,36.586c1.602-1.602,1.602-4.198,0-5.799c-1.601-1.601-4.197-1.601-5.798,0
		c-1.602,1.601-1.602,4.197,0,5.799C22.398,38.188,24.995,38.188,26.596,36.586"/>
</g>
<path fill="#0078AE" d="M59.091,47.204V20.629h8.484c3.014,0,5.636,0.458,7.87,1.373c2.233,0.916,3.971,2.336,5.214,4.264
	c1.242,1.925,1.863,4.435,1.863,7.526c0,3.067-0.614,5.596-1.844,7.58c-1.229,1.986-2.934,3.454-5.114,4.405
	c-2.18,0.95-4.712,1.427-7.593,1.427H59.091z M66.188,42.067h0.951c1.586,0,2.994-0.25,4.223-0.749s2.187-1.355,2.875-2.568
	c0.687-1.213,1.031-2.864,1.031-4.958c0-2.115-0.344-3.758-1.031-4.923c-0.688-1.165-1.646-1.979-2.875-2.443
	c-1.229-0.464-2.637-0.695-4.223-0.695h-0.951V42.067z"/>
<path fill="#0078AE" d="M97.232,47.704c-1.903,0-3.701-0.423-5.393-1.268c-1.692-0.844-3.06-2.063-4.104-3.656
	c-1.044-1.592-1.566-3.508-1.566-5.742s0.521-4.145,1.566-5.727c1.044-1.58,2.412-2.793,4.104-3.637
	c1.691-0.845,3.489-1.268,5.393-1.268c1.427,0,2.801,0.237,4.123,0.714c1.322,0.476,2.498,1.171,3.529,2.086
	c1.03,0.916,1.85,2.026,2.457,3.336c0.607,1.308,0.912,2.806,0.912,4.494c0,2.235-0.521,4.149-1.566,5.742
	c-1.043,1.594-2.404,2.813-4.082,3.655C100.926,47.281,99.135,47.704,97.232,47.704z M97.232,42.567c0.873,0,1.592-0.227,2.16-0.678
	c0.568-0.453,0.984-1.095,1.25-1.928c0.264-0.832,0.396-1.808,0.396-2.925s-0.132-2.087-0.396-2.907
	c-0.265-0.82-0.682-1.455-1.25-1.908c-0.568-0.451-1.289-0.679-2.16-0.679c-0.873,0-1.594,0.228-2.161,0.679
	c-0.569,0.453-0.991,1.088-1.269,1.908c-0.279,0.82-0.418,1.79-0.418,2.907s0.139,2.093,0.418,2.925
	c0.276,0.833,0.699,1.475,1.269,1.928C95.639,42.341,96.359,42.567,97.232,42.567z"/>
<path fill="#0078AE" d="M112.694,47.204V26.907h5.75l0.516,2.568h0.118c0.925-0.832,1.916-1.553,2.975-2.159
	c1.057-0.605,2.352-0.909,3.885-0.909c1.56,0,2.834,0.286,3.826,0.856c0.99,0.57,1.777,1.402,2.358,2.497
	c0.978-0.904,2.022-1.688,3.132-2.354c1.111-0.666,2.42-0.999,3.926-0.999c2.459,0,4.248,0.737,5.373,2.212
	c1.123,1.476,1.685,3.483,1.685,6.026v12.558h-7.058V35.433c0-1.402-0.205-2.354-0.615-2.854c-0.409-0.5-1.063-0.749-1.961-0.749
	c-0.504,0-1.059,0.148-1.666,0.445c-0.607,0.298-1.256,0.756-1.942,1.373v13.556h-7.058V35.433c0-1.402-0.211-2.354-0.635-2.854
	c-0.423-0.5-1.084-0.749-1.981-0.749c-0.503,0-1.058,0.148-1.665,0.446c-0.608,0.297-1.242,0.755-1.902,1.372v13.556L112.694,47.204
	L112.694,47.204z"/>
<path fill="#0078AE" d="M155.273,24.089c-1.188,0-2.141-0.297-2.854-0.892c-0.715-0.594-1.07-1.391-1.07-2.39
	c0-0.975,0.355-1.76,1.07-2.354c0.713-0.594,1.664-0.892,2.854-0.892c1.164,0,2.107,0.298,2.836,0.892
	c0.728,0.595,1.091,1.38,1.091,2.354c0,0.999-0.363,1.796-1.091,2.39C157.383,23.792,156.438,24.089,155.273,24.089z
	 M151.746,47.204V26.907h7.059v20.297H151.746z"/>
<path fill="#0078AE" d="M164.475,47.204V26.907h5.748l0.516,2.533h0.119c0.925-0.832,1.976-1.547,3.152-2.142
	c1.176-0.594,2.529-0.892,4.063-0.892c2.458,0,4.242,0.737,5.354,2.212c1.11,1.474,1.664,3.483,1.664,6.026v12.558h-7.058V35.433
	c0-1.402-0.211-2.354-0.634-2.854c-0.424-0.5-1.084-0.749-1.982-0.749c-0.793,0-1.467,0.155-2.021,0.464
	c-0.556,0.31-1.176,0.763-1.863,1.354v13.556L164.475,47.204L164.475,47.204z"/>
<path fill="#0078AE" d="M200.354,47.704c-1.903,0-3.7-0.423-5.393-1.268c-1.691-0.844-3.061-2.063-4.104-3.656
	c-1.045-1.592-1.566-3.508-1.566-5.742s0.521-4.145,1.566-5.727c1.043-1.58,2.41-2.793,4.104-3.637
	c1.691-0.845,3.488-1.268,5.393-1.268c1.427,0,2.802,0.237,4.123,0.714c1.32,0.476,2.498,1.171,3.527,2.086
	c1.031,0.916,1.852,2.026,2.459,3.336c0.607,1.308,0.912,2.806,0.912,4.494c0,2.235-0.521,4.149-1.566,5.742
	c-1.045,1.594-2.404,2.813-4.084,3.655C204.047,47.281,202.258,47.704,200.354,47.704z M200.354,42.567
	c0.871,0,1.593-0.227,2.16-0.678c0.568-0.453,0.984-1.095,1.248-1.928c0.266-0.832,0.396-1.808,0.396-2.925
	s-0.133-2.087-0.396-2.907s-0.68-1.455-1.248-1.908c-0.567-0.451-1.289-0.679-2.16-0.679c-0.873,0-1.594,0.228-2.162,0.679
	c-0.567,0.453-0.989,1.088-1.268,1.908c-0.277,0.82-0.417,1.79-0.417,2.907s0.14,2.093,0.417,2.925
	c0.277,0.833,0.699,1.475,1.268,1.928C198.762,42.341,199.48,42.567,200.354,42.567z"/>
<path fill="#0078AE" d="M210.676,28.236l-1.547-2.055c1.401-0.463,2.452-1.002,3.152-1.615c0.699-0.614,1.05-1.383,1.05-2.309
	l-0.158-2.696l2.261,2.108c-0.345,0.178-0.74,0.334-1.189,0.467c-0.449,0.133-0.898,0.2-1.348,0.2c-1.006,0-1.863-0.213-2.578-0.641
	c-0.713-0.428-1.069-0.996-1.069-1.708c0-0.782,0.343-1.405,1.03-1.868c0.688-0.462,1.56-0.694,2.617-0.694
	c1.479,0,2.59,0.36,3.33,1.081c0.74,0.72,1.109,1.73,1.109,3.029c0,1.459-0.549,2.758-1.646,3.896
	C214.594,26.573,212.921,27.507,210.676,28.236z"/>
<path fill="#0078AE" d="M224.713,47.704c-1.453,0-2.974-0.264-4.56-0.785c-1.587-0.523-2.962-1.213-4.123-2.068l3.132-3.961
	c1.029,0.691,2.016,1.221,2.954,1.588c0.938,0.369,1.856,0.554,2.756,0.554c0.924,0,1.599-0.144,2.021-0.429
	c0.422-0.284,0.636-0.678,0.636-1.178c0-0.402-0.214-0.748-0.636-1.033c-0.424-0.285-0.979-0.554-1.664-0.803
	c-0.688-0.25-1.416-0.506-2.182-0.768c-0.898-0.332-1.791-0.749-2.676-1.248c-0.887-0.5-1.62-1.137-2.201-1.908
	c-0.582-0.773-0.871-1.719-0.871-2.836c0-1.285,0.361-2.408,1.09-3.371c0.728-0.963,1.744-1.712,3.053-2.248
	c1.31-0.536,2.835-0.803,4.58-0.803c1.771,0,3.315,0.269,4.639,0.803c1.32,0.535,2.458,1.137,3.409,1.801l-3.132,3.781
	c-0.819-0.521-1.619-0.938-2.398-1.249c-0.779-0.31-1.54-0.463-2.279-0.463c-0.82,0-1.422,0.125-1.805,0.375
	c-0.384,0.249-0.575,0.61-0.575,1.088c0,0.404,0.191,0.736,0.575,0.998c0.383,0.263,0.905,0.5,1.566,0.713
	c0.66,0.216,1.373,0.453,2.141,0.714c0.714,0.238,1.421,0.519,2.121,0.84c0.7,0.319,1.341,0.719,1.923,1.194
	c0.581,0.476,1.044,1.04,1.388,1.693s0.517,1.444,0.517,2.373c0,1.235-0.356,2.358-1.07,3.37c-0.714,1.011-1.765,1.808-3.151,2.39
	C228.499,47.412,226.773,47.704,224.713,47.704z"/>
<circle fill="none" stroke="#0078AE" stroke-miterlimit="10" cx="240.204" cy="30.077" r="3.563"/>
<g>
	<path fill="#0078AE" d="M238.491,32.224v-4.47h1.637c0.32,0,0.613,0.042,0.877,0.126c0.265,0.084,0.476,0.229,0.634,0.436
		c0.157,0.205,0.235,0.488,0.235,0.849c0,0.349-0.078,0.633-0.235,0.853c-0.158,0.221-0.369,0.381-0.634,0.483
		c-0.264,0.103-0.557,0.152-0.877,0.152h-0.563v1.571H238.491z M239.564,29.806h0.479c0.258,0,0.451-0.055,0.586-0.164
		c0.135-0.11,0.201-0.27,0.201-0.479c0-0.211-0.066-0.357-0.201-0.438s-0.328-0.121-0.586-0.121h-0.479V29.806z M240.903,32.224
		l-0.968-1.848l0.728-0.701l1.438,2.549H240.903z"/>
</g>
</svg>
