<?xml version="1.0" encoding="utf-8"?>
<!-- Generator: Adobe Illustrator 24.1.1, SVG Export Plug-In . SVG Version: 6.00 Build 0)  -->
<svg version="1.1" id="레이어_1" xmlns="http://www.w3.org/2000/svg" xmlns:xlink="http://www.w3.org/1999/xlink" x="0px"
	 y="0px" viewBox="0 0 141.73 141.73" style="enable-background:new 0 0 141.73 141.73;" xml:space="preserve">
<style type="text/css">
	.st0{fill:#00A0E9;}
	.st1{fill:#E60012;}
</style>
<path class="st0" d="M3.4,138.34L3.4,138.34c-4.53-4.53-4.53-11.94,0-16.46L121.87,3.4c4.53-4.53,11.94-4.53,16.46,0l0,0
	c4.53,4.53,4.53,11.94,0,16.46L19.86,138.34C15.33,142.86,7.92,142.86,3.4,138.34z"/>
<path class="st1" d="M138.34,138.34L138.34,138.34c-4.53,4.53-11.94,4.53-16.46,0L3.4,19.86c-4.53-4.53-4.53-11.94,0-16.46l0,0
	c4.53-4.53,11.94-4.53,16.46,0l118.48,118.48C142.86,126.4,142.86,133.81,138.34,138.34z"/>
</svg>
